<?xml version="1.0" standalone="no"?>
<!DOCTYPE svg PUBLIC "-//W3C//DTD SVG 1.1//EN" "http://www.w3.org/Graphics/SVG/1.1/DTD/svg11.dtd" >
<svg xmlns="http://www.w3.org/2000/svg">
<metadata>
This is a custom SVG webfont generated by Font Squirrel.
Copyright   : Copyright c 1993 Soft Horizons All rights reserved
</metadata>
<defs>
<font id="AceBinghamSHRegular" horiz-adv-x="282" >
<font-face units-per-em="1000" ascent="800" descent="-200" />
<missing-glyph horiz-adv-x="500" />
<glyph unicode="&#xe000;" horiz-adv-x="500" d="M0 0v0v0v0v0z" />
<glyph unicode="&#xf020;" horiz-adv-x="180" />
<glyph unicode="&#xf021;" horiz-adv-x="152" d="M142 565q0 -6 -12 -26q-14 -24 -29 -131q-4 -28 -12 -128l-15 -195q-1 -18 -20 -18q-21 0 -21 26q0 106 8 195q8 94 10 147q3 84 19 119q15 32 48 32q24 0 24 -21zM84 12q0 -17 -12 -19q-5 0 -20 -3q-16 -7 -20 -7q-14 0 -14 22q0 13 11.5 23t25.5 10q29 0 29 -26z" />
<glyph unicode="&#xf022;" horiz-adv-x="162" d="M130 561q0 -39 -9 -67t-22 -28q-14 0 -15.5 17.5t-1.5 34.5q-1 13 -1 43q0 26 23 26q26 0 26 -26zM68 534q0 -68 -30 -68q-9 0 -16 14.5t-6 29.5q1 22 1 64q0 16 22 16q18 0 24 -12q0 -2 2.5 -16.5t2.5 -27.5z" />
<glyph unicode="&#xf023;" horiz-adv-x="474" d="M452 398q0 -9 -8.5 -18.5t-15.5 -10.5l-99 -21q-1 -13 -4.5 -39.5t-5.5 -39.5l106 18q23 0 23 -13q0 -9 -8.5 -18.5t-15.5 -10.5l-111 -20l-9 -73q2 -8 -1 -26q-4 -9 -16.5 -16.5t-22.5 -7.5t-10 9l14 105l-80 -14l-12 -86q2 -9 -1 -26q-8 -18 -37 -18q-18 0 -18 11 l17 109l-82 -15q-16 -7 -30 -7q-22 0 -22 21q0 22 23 31l119 19l11 71q-27 -6 -101 -21q-16 -7 -30 -7q-22 0 -22 21q0 22 23 31l138 26l14 92q5 30 26 28q19 -2 19 -14q0 -9 -11 -97l78 14l14 99q2 12 9 21.5t17 6.5q13 -4 13 -28q0 -11 -9 -90q26 5 95 17q23 0 23 -13z M284 339q-20 -5 -78 -17q-2 -12 -5.5 -36.5t-5.5 -36.5l79 13z" />
<glyph unicode="&#xf024;" d="M263 376q0 -8 -14 -10q-17 -2 -19 8q-1 25 -8 75q-9 36 -54 36q-28 0 -47 -22.5t-19 -56.5q0 -30 16 -40l95 -62q32 -21 32 -70q0 -70 -83 -92l-3 -68q-1 -16 -11 -16q-13 0 -13 31v50l-30 11t-48 27q-34 29 -34 59q0 17 35 17q5 0 12 -18q8 -23 18 -33q27 -26 64 -26 q53 0 53 60q0 23 -14 31l-101 60q-37 22 -37 78q0 79 88 117l4 61q1 17 16 17q10 0 10 -16v-62q43 -16 62.5 -35.5t23.5 -54.5z" />
<glyph unicode="&#xf025;" horiz-adv-x="543" d="M540 582q0 -3 -6 -13l-249 -322l-136 -197l-13.5 -22.5t-19.5 -10.5q-11 0 -19 11t-8 21q0 5 2 7l316 419q2 2 47 71q-81 -48 -132 -57q-42 -7 -73 -1q6 -26 6 -83q0 -49 -36 -91.5t-80 -42.5q-51 0 -83 41t-32 105q0 53 33.5 105.5t68.5 52.5q18 0 61 -22l46.5 -29.5 t46.5 -14.5q38 0 98 25q66 27 101 63q12 12 29 12q32 0 32 -27zM522 135q0 -57 -33.5 -102.5t-76.5 -45.5q-44 0 -74 37t-30 91q0 59 31.5 96.5t81.5 37.5q42 0 71.5 -33.5t29.5 -80.5zM211 425q0 48 -19 80.5t-47 32.5q-30 0 -51 -33.5t-21 -86.5q0 -50 18.5 -82.5 t47.5 -32.5q31 0 51.5 35t20.5 87zM477 137q0 38 -16 61t-43 23q-29 0 -46 -32t-17 -85q0 -90 56 -90q66 0 66 123z" />
<glyph unicode="&#xf026;" horiz-adv-x="528" d="M517 -17q0 -15 -52 -15q-16 0 -99 87q-79 -48 -125.5 -65t-98.5 -17q-34 0 -47 12l-45 41l-18 7q-13 5 -13 51q0 62 52 138l84 112q-44 97 -44 154q0 48 22.5 78.5t56.5 30.5q42 0 72 -29.5t30 -72.5q0 -35 -13.5 -65.5t-60.5 -100.5q46 -73 101 -140q46 -57 52 -57 q12 0 47 72q8 16 8 26q0 8 -3 22l22 2q7 0 14 -11t7 -24q0 -28 -60 -123q37 -43 85 -91q26 -12 26 -22zM249 508q0 50 -44 50q-24 0 -39.5 -16t-15.5 -39q0 -32 16.5 -75.5t27.5 -43.5q12 0 33.5 50t21.5 74zM329 96l-146 187q-115 -126 -115 -215q0 -24 19.5 -40.5 t44.5 -16.5q42 0 117 29q80 31 80 56z" />
<glyph unicode="&#xf027;" horiz-adv-x="138" d="M97 543q0 1 -11 -50q-6 -28 -10 -34t-19 -6q-5 0 -8 1l-1 75q0 42 23 42q10 0 18 -8.5t8 -19.5z" />
<glyph unicode="&#xf028;" horiz-adv-x="212" d="M185 588q0 1 -14 -16q-17 -20 -30 -51q-38 -90 -50 -130q-19 -67 -19 -148q0 -85 31 -195q3 -12 17 -42q10 -24 10 -36q0 -6 -4 -6q-17 0 -39 41q-61 116 -61 253q0 132 80 297q29 59 46 59q10 0 21.5 -8t11.5 -18z" />
<glyph unicode="&#xf029;" horiz-adv-x="212" d="M175 284q7 -133 -65 -301q-26 -60 -42 -61q-10 0 -22 7t-13 17q0 -1 13 16q16 21 27 52q34 93 43 133q16 68 12 149q-4 86 -41 193q-15 27 -31 76q0 6 4 7q18 0 41 -39q67 -112 74 -249z" />
<glyph unicode="&#xf02a;" horiz-adv-x="156" d="M104 536q-2 -13 -16 -13q-6 0 -10 2q-1 -19 -18 -19q-8 0 -9 21q-12 -4 -16 -4q-12 0 -12 11q0 8 13 14q-10 15 -6 22q3 7 10 8q8 2 20 -13q6 17 14 17q10 0 16 -11q4 -7 -2 -22q16 -6 16 -13z" />
<glyph unicode="&#xf02b;" horiz-adv-x="348" d="M356 278q0 -9 -8.5 -18.5t-15.5 -10.5l-145 -28q-6 -16 -13 -117q2 -8 -1 -26q-4 -9 -16.5 -16.5t-22.5 -7.5t-10 9l13 148q0 2 -31.5 -6t-47.5 -14.5t-29 -6.5q-22 0 -22 21q0 22 23 31q37 15 110 25q2 0 12 105q7 30 26 28t19 -14q0 -51 -10 -108q45 7 146 19 q23 0 23 -13z" />
<glyph unicode="&#xf02c;" horiz-adv-x="106" d="M80 19q0 -27 -28 -75q-14 -24 -29 -24q-17 0 -17 14q0 2 12 33l18 52q6 19 22 19q22 0 22 -19z" />
<glyph unicode="&#xf02d;" horiz-adv-x="370" d="M337 210q0 -13 -9 -13q-1 0 -18.5 2t-28.5 2l-173 -8q-19 -1 -40.5 -5.5t-23.5 -4.5q-14 0 -14 24q0 32 35 32q11 0 37 -1.5t12 -1.5q10 0 23 1q17 2 23 2q39 2 105 2q6 0 14.5 2t14.5 2q17 0 30 -11t13 -24z" />
<glyph unicode="&#xf02e;" horiz-adv-x="106" d="M64 18q0 -13 -9.5 -22.5t-21.5 -9.5t-21 9.5t-9 20.5q0 30 31 30q30 0 30 -28z" />
<glyph unicode="&#xf02f;" d="M258 576q-17 -32 -187 -550q2 -9 -1 -26q-4 -8 -17 -16t-23 -8q-13 0 -11 7l202 589q10 28 36 28q14 0 1 -24z" />
<glyph unicode="&#xf030;" horiz-adv-x="614" d="M584 342q0 -151 -92.5 -264t-216.5 -113q-104 0 -178 76.5t-74 184.5q0 136 100 252q93 108 179 108q12 0 29 -17q36 6 54 6q44 0 101 -37q98 -63 98 -196zM545 365q0 74 -41 120.5t-106 46.5q-64 0 -118.5 -56t-54.5 -112q0 -34 24 -34q10 0 26 9q-3 -18 -8.5 -23 t-22.5 -5q-28 0 -45 20.5t-17 53.5q0 35 30 96q-34 -12 -77 -74q-59 -86 -59 -196q0 -84 55 -145.5t131 -61.5q107 0 197 121q86 115 86 240z" />
<glyph unicode="&#xf031;" horiz-adv-x="240" d="M182 582q0 -20 -20 -119q-7 -35 -14 -135q-8 -111 -8 -202q0 -37 11 -114q0 -5 -4 -9.5t-7 -2.5q-7 3 -22 5q-11 1 -13 6q-27 64 -27 207q0 144 27.5 266.5t58.5 122.5q18 0 18 -25z" />
<glyph unicode="&#xf032;" horiz-adv-x="530" d="M509 512q0 -69 -86 -139l-138 -112q-78 -63 -113 -100q-52 -53 -83 -112q141 35 157 38q26 5 76 5q56 0 91.5 -12.5t35.5 -31.5q0 -18 -27 -18q-13 0 -41 2t-46 2q-76 0 -197 -32.5t-108 -32.5q-9 0 -9 15q0 1 -3 5t-3 7q0 9 8.5 45.5t14.5 46.5q64 111 147 175l225 172 q25 19 44.5 48.5t19.5 49.5q0 14 -14.5 24.5t-36.5 10.5q-63 0 -145 -38q-69 -31 -127 -76q-54 -42 -54 -59q0 -6 11 -6q21 0 62 25t48 25t7 -6q0 -10 -28 -38l-31 -31q-27 -27 -64 -27q-51 0 -51 66q0 57 134 138.5t226 81.5q41 0 69.5 -32.5t28.5 -78.5z" />
<glyph unicode="&#xf033;" horiz-adv-x="482" d="M468 503q0 -49 -57 -94l-73 -48q0 -1 26 -17q31 -18 49 -44q26 -38 26 -92q0 -93 -73 -156.5t-180 -63.5q-71 0 -116 37.5t-45 97.5q0 52 36.5 88t87.5 36q30 0 30 -13q0 -16 -47 -22q-29 -4 -50.5 -30t-21.5 -56q0 -34 30 -53.5t82 -19.5q88 0 149.5 50t61.5 122 q0 42 -30.5 73.5t-72.5 31.5t-72.5 -6.5t-53.5 -6.5q-7 0 -14 6t-7 12q0 7 50 24q85 29 92 32q60 24 105.5 59.5t45.5 61.5q0 20 -25.5 33.5t-60.5 13.5q-60 0 -152 -28q-96 -29 -111 -54q-5 -11 -10.5 -21t-10.5 -10q-14 0 -14 30q0 61 103 103q90 37 187 37q61 0 98.5 -31 t37.5 -82z" />
<glyph unicode="&#xf034;" horiz-adv-x="496" d="M504 217q0 -20 -17 -21l-95 -4q-3 0 -3 -17q0 -106 15 -131q10 -9 10 -26t-23 -17q-39 0 -54 76q-7 36 -7 81q0 13 -3 32q-56 0 -127 -19q-122 -45 -142 -45q-6 0 -15 9q-4 4 -5 12.5t-4 13.5t-7.5 11t-4.5 18q0 81 126 242q56 71 140 142q91 77 128 77q17 0 17 -13 q0 -8 -15 -23q19 -11 19 -21q0 5 -23 -94t-23 -189q0 -32 1 -54q112 0 112 -40zM399 593q0 10 -8 10q-29 0 -159 -161q-71 -88 -114 -169q-32 -59 -32 -74q0 -8 6 -8q-9 0 68 24q82 26 170 33q2 40 12 134q13 80 37 151q20 62 20 60z" />
<glyph unicode="&#xf035;" horiz-adv-x="492" d="M474 253q0 -107 -84.5 -192.5t-188.5 -85.5q-65 0 -122.5 53t-57.5 114q0 49 27.5 85.5t65.5 36.5q21 0 21 -20q-16 -7 -34 -17q-35 -30 -35 -80q0 -48 37 -82.5t89 -34.5q86 0 158 79.5t72 166.5q0 62 -45.5 107.5t-109.5 45.5q-58 0 -124 -46q-56 -39 -66 -67 q-4 -10 -9 -10q-3 0 -6 5l-8 13q-9 4 -17 9q-14 7 -14 25q0 41 22 110.5t43 97.5q12 16 16 16q12 0 27 -5q131 9 150 9q53 0 121 -5q48 -3 48 -27t-28 -24q-1 0 -9.5 1t-15.5 2q-19 2 -138 -5t-128 -12.5t-17 -21.5q-3 -4 -25 -85q94 69 170 69q87 0 151 -67t64 -158z" />
<glyph unicode="&#xf036;" horiz-adv-x="504" d="M473 281q0 -114 -80.5 -205.5t-180.5 -91.5q-80 0 -135.5 62.5t-55.5 151.5q0 94 64 197q53 85 131 151q72 60 107 60q19 0 19 -16q0 -15 -15 -26q-245 -176 -245 -382q0 -65 34.5 -109t84.5 -44q87 0 158 86q68 83 68 176q0 56 -32.5 95.5t-78.5 39.5q-31 0 -68 -18 q-41 -19 -57 -47q-4 -11 -9 -23.5t-13 -12.5q-24 0 -24 31q0 34 56.5 70.5t108.5 36.5q70 0 116.5 -52t46.5 -130z" />
<glyph unicode="&#xf037;" horiz-adv-x="544" d="M561 510q0 -7 -9 -13q-17 -9 -18 -10q-105 -89 -237 -265q-19 -24 -139 -196q-4 -6 -18 -34q-5 -11 -18 -11q-9 0 -19.5 12.5t-10.5 24.5q0 44 142 225q149 189 245 250q-22 9 -40 9q-56 0 -158.5 -15t-180.5 -15q-51 0 -64 4t-13 21q0 30 24 30q103 0 217.5 12t129.5 12 q167 0 167 -41z" />
<glyph unicode="&#xf038;" horiz-adv-x="548" d="M524 248q0 -57 -23 -96q-44 -75 -124 -124.5t-157 -49.5q-76 0 -131.5 50.5t-55.5 119.5q0 62 42 129q33 53 75 86q15 11 43 39q-94 6 -94 57q0 65 113 115q97 43 184 43q96 0 96 -22q0 -20 -42 -22q-4 0 -9 1l-5 1q-86 0 -198 -47q-102 -43 -102 -64q0 -14 43 -16 q17 0 90 2l118 69q86 48 107 48q9 0 9 -15t-7 -20q-37 -20 -133 -87q138 -41 151 -110q10 -53 10 -87zM481 283q0 50 -46.5 89t-102.5 39q-13 0 -25 -2q-5 -1 -66 -41q-67 -44 -114 -109q-50 -69 -50 -124q0 -45 32.5 -75.5t81.5 -30.5q104 0 197 79.5t93 174.5z" />
<glyph unicode="&#xf039;" horiz-adv-x="546" d="M528 465q0 -6 -18 -32q-29 -43 -62 -107l-90 -174q-46 -92 -57 -144q-7 -30 -12 -30q-10 0 -24.5 11t-14.5 25q0 53 73 189q25 47 25 48q0 5 -2 5q-4 0 -38 -39q-42 -48 -75 -74q-53 -39 -101 -39q-42 0 -75.5 44t-33.5 95q0 79 63 177t154 164q98 71 184 71q40 0 68 -25 t28 -63q0 -18 -23 -73q4 -5 20 -14q11 -7 11 -15zM475 577q0 35 -42 35q-65 0 -151.5 -62t-145.5 -149q-64 -95 -64 -177q0 -30 15 -49t38 -19q66 0 171 108q11 11 166 192q-31 -14 -43 -14q-25 0 -25 21q0 11 13 18t26 13q42 29 42 83z" />
<glyph unicode="&#xf03a;" horiz-adv-x="106" d="M84 197q0 -36 -36 -36q-34 0 -34 32q0 15 12 26.5t29 11.5q29 -1 29 -34zM79 33q0 -32 -34 -32q-35 0 -35 34q0 14 11 25t26 11q32 -1 32 -38z" />
<glyph unicode="&#xf03b;" horiz-adv-x="106" d="M79 193q0 -36 -33 -36t-33 34q0 13 11 24t26 11q29 -1 29 -33zM56 37q0 -7 -29 -79q-11 -26 -28 -26t-17 16q0 -1 29 93q6 19 20 19q9 0 17 -7t8 -16z" />
<glyph unicode="&#xf03c;" horiz-adv-x="384" d="M383 393q3 -20 -41 -43l-81 -48q-95 -54 -160 -78l33 -18q40 -12 156 -23q69 -6 71 -31q1 -15 -41 -19q-76 -7 -157 18q-87 27 -92 29q-46 21 -43 56q2 16 10 22t39 12q19 3 87 31q86 36 143 73q53 34 58 34q6 2 12 -3t6 -12z" />
<glyph unicode="&#xf03d;" horiz-adv-x="374" d="M346 310q0 -13 -9 -13q-16 0 -29 3q-4 1 -12 1q-17 0 -37 -1l-142 -7q-21 -1 -41.5 -5.5t-22.5 -4.5q-14 0 -14 24q0 32 35 32q6 0 21.5 -1.5t23.5 -1.5h4l46 3l105 2l25 3q5 1 4 1q17 0 30 -11t13 -24zM318 178q0 -13 -9 -13q-16 0 -29 3q-4 1 -12 1q-17 0 -37 -1 l-142 -7q-21 -1 -41.5 -5.5t-22.5 -4.5q-14 0 -14 24q0 32 35 32q6 0 21.5 -1.5t23.5 -1.5h4l46 3l105 2l25 3q5 1 4 1q17 0 30 -11t13 -24z" />
<glyph unicode="&#xf03e;" horiz-adv-x="384" d="M349 231q-4 -16 -13 -20.5t-41 -5.5q-85 -13 -192 -63q-56 -26 -64 -25q-6 -1 -11 4.5t-4 12.5q0 18 47 37q31 18 63 33q76 35 143 50q-46 33 -194 69q-68 16 -65 40q2 15 43 13q84 -4 165 -42l82 -38q42 -25 42 -54q0 -5 -1 -11z" />
<glyph unicode="&#xf03f;" horiz-adv-x="312" d="M296 461q0 -64 -39 -120l-112 -161q-9 -13 -22 -47q-11 -28 -14 -28q-19 0 -19 21q0 36 32 89l114 188q28 46 28 80q0 60 -57 60q-45 0 -88 -42t-44 -78q-1 -40 -3 -49t-12 -9q-14 0 -29.5 15.5t-15.5 32.5q0 63 51 111.5t118 48.5q49 0 80.5 -31.5t31.5 -80.5zM135 9 q-6 -32 -30 -32q-27 0 -27 32q0 14 13.5 27.5t27.5 13.5q8 0 11 -4v-10q0 -4 3 -12.5t2 -14.5z" />
<glyph unicode="&#xf040;" horiz-adv-x="546" d="M525 349q0 -62 -21 -125q-18 -55 -38 -74q-25 -24 -68 -25q-32 -1 -62 36q-33 -52 -68 -52q-44 0 -72 36.5t-28 92.5q0 81 37 157q39 81 89 81q84 0 84 -83v-180q0 -43 21 -44q13 0 22 9q24 24 40 74t16 96q0 78 -46 145q-50 73 -120 71q-65 -2 -123 -61 q-114 -115 -115 -298q-1 -102 57 -160q52 -52 122 -53q71 -1 140 68q25 25 38 25t13 -26q0 -13 -3 -28q-77 -78 -174 -78q-116 0 -192 75q-58 58 -59 165q-1 91 31 177q35 96 103.5 165t160.5 70q85 1 150 -76t65 -180zM331 328l-21 13q-1 0 5 21q7 25 7 41q0 38 -22 38 q-25 0 -47 -59q-38 -103 -38 -159q0 -33 15 -56.5t36 -23.5q20 0 39.5 31t21.5 71z" />
<glyph unicode="&#xf041;" horiz-adv-x="449" d="M428 94q0 -11 -2 -32q-3 -24 -3 -35q-2 -40 -26 -40q-20 0 -34.5 21.5t-16.5 55.5l-11 154q-1 9 -21 7q-60 -5 -147 -20l-9 -83q-1 -7 -1 -67q0 -23 -19 -23q-32 0 -32 76q0 16 2.5 35t2.5 31q0 17 -9 17q-24 0 -48 -19q-1 -5 -7 -15q-6 -6 -11 -6q-25 0 -25 27 q0 18 12 25q20 17 93 43q37 184 64 260q60 169 137 169q25 0 31 -14q14 0 24 -15q31 -45 29 -156l-4 -240q1 -40 8 -129q4 -29 9 -29q3 0 5 3t4 3q5 0 5 -4zM337 572q0 35 -3 47q-5 24 -25 24q-21 0 -54 -77q-28 -64 -50 -147q-25 -93 -25 -155q50 8 105 8q24 0 46 -2 q6 188 6 302z" />
<glyph unicode="&#xf042;" horiz-adv-x="604" d="M594 559q0 -41 -72 -95l-99 -68q67 3 102 -35q31 -35 31 -93q0 -133 -176 -236q-84 -49 -157 -49q-46 0 -76 27t-30 69q0 31 42 69q-2 19 2 150q-25 0 -31 9q-2 3 -2 6q0 10 12.5 19t22.5 7q3 14 7 39q15 117 51 117q6 0 12.5 -6.5t6.5 -14.5q0 -10 -14 -67 q-4 -18 -14 -51l70 24q31 10 100 55l91 59q33 21 59.5 49t26.5 42q0 22 -37 22q-68 0 -181 -45q-102 -40 -198 -99q-31 -19 -60 -51q17 -1 17 -8t-25 -26t-34 -19q-18 0 -18 34q0 27 55 71q113 91 225 143t198 52q40 0 66.5 -28t26.5 -72zM517 294q0 32 -25.5 51t-69.5 19 q-47 0 -88 -14q-127 -42 -125 -43l-3 -119q0 -18 11 -42l-16 -32q-11 0 -20 3l-10 4q-3 0 -9 -11.5t-6 -22.5q0 -38 55 -38q69 0 149 45q66 37 111.5 95t45.5 105z" />
<glyph unicode="&#xf043;" horiz-adv-x="493" d="M466 564q0 -34 -36 -125q-17 -42 -54 -85t-56 -43q-6 0 -19 15.5t-13 24.5q0 8 11 31.5t14 23.5q4 0 8.5 -2t7.5 -2q6 0 20 22q65 104 65 169q0 37 -38 37q-40 0 -109 -58q-76 -63 -126 -150q-61 -103 -61 -206q0 -89 34 -141t93 -52q71 0 146 83q70 77 70 134 q0 9 -2.5 25t-2.5 17q0 7 10 7q16 0 26.5 -18.5t10.5 -45.5q0 -91 -74.5 -169t-167.5 -78q-81 0 -141.5 71t-60.5 168q0 115 66 228q57 97 143 164q81 63 136 63q38 0 69 -33t31 -75z" />
<glyph unicode="&#xf044;" horiz-adv-x="699" d="M678 394q0 -146 -129 -288t-274 -142q-105 0 -105 105q0 42 31 65l47 31q4 84 16 166l14 86q11 76 24 76q5 0 13.5 -13t7.5 -25q-25 -240 -22 -277q17 -5 17 -12q0 -8 -20 -18l-1 -79q-31 0 -39 9.5t-12 43.5q-44 -20 -44 -56q0 -41 63 -41q127 0 248 131.5t121 267.5 q0 145 -154 145q-102 0 -266 -85q-147 -77 -164 -114q-11 -24 -14 -24q-17 0 -17 24q0 33 31 62q81 75 211 132t219 57q87 0 142.5 -64t55.5 -163z" />
<glyph unicode="&#xf045;" horiz-adv-x="540" d="M557 533q0 -12 -42 -18q-69 -6 -138 -13q-139 -15 -216 -36q9 -3 9 -8q-3 -41 -17 -154q149 39 208 39q44 0 52 -1q27 -5 27 -25q0 -26 -100 -31q-37 -2 -150 -25q-40 -8 -45 -15q-13 -18 -13 -128q0 -42 4 -70q142 32 188 39q42 7 90 7q64 0 64 -43q0 -12 -8 -25h-19 q-14 0 -35.5 -7.5t-27.5 -8.5q-10 13 -19 13q-33 0 -111 -11q-111 -16 -220 -44l-50 -13q-2 2 -2 7q0 26 60 51q12 5 35 16l21 10q-20 12 -25 19.5t-5 23.5q0 21 15 145q-7 0 -14 9t-7 16q0 13 32 34l39 168q-21 -6 -30 -6q-15 0 -15 24q0 39 163 67q185 32 264 32 q15 0 26.5 -12t11.5 -26z" />
<glyph unicode="&#xf046;" horiz-adv-x="567" d="M604 585q0 -11 -8.5 -24.5t-15.5 -13.5q-21 0 -69 -2q-25 -1 -246 -26q-122 -14 -255 -58q2 36 23 51q18 14 80 30q101 27 219.5 46t183.5 19h61q27 0 27 -22zM489 337q0 -16 -20.5 -27t-47.5 -11q-80 0 -162 -6q-87 -7 -100 -16q-19 -100 -19 -264q0 -8 2.5 -17l2.5 -9 q0 -6 -14 -6q-53 0 -53 81q0 57 18 201l-52 -12q-7 -2 -7 10q0 23 15.5 29.5l54.5 22.5q6 36 34 137q15 43 29 43q16 0 16 -17q0 -14 -8 -41q-5 -23 -15 -114q53 15 144 27q85 11 135 11q16 0 31.5 -6.5t15.5 -15.5z" />
<glyph unicode="&#xf047;" horiz-adv-x="512" d="M506 248q0 -15 -25 -17q-29 -2 -77 -8q20 -25 20 -53q0 -48 -30 -101q-33 -58 -83.5 -91t-106.5 -33q-71 0 -128 72t-57 161q0 137 109 275t223 138q45 0 76 -29.5t31 -71.5t-37 -98.5t-65 -56.5q-18 0 -18 19q0 -1 34.5 60t34.5 94q0 16 -13 29t-30 13q-43 0 -110 -50 q-74 -55 -123 -135q-58 -97 -58 -201q0 -74 32.5 -121.5t82.5 -47.5q65 0 125 67q57 64 57 125q0 27 -11 27q-16 0 -63 -14q-70 -21 -88 -25q-29 -7 -26 -7q-10 0 -10 17q0 44 184 85q59 13 81 13q25 0 47 -10t22 -25z" />
<glyph unicode="&#xf048;" horiz-adv-x="506" d="M496 263q0 -10 -18 -20q-11 -6 -36 -2q-15 -15 -15 -213q-1 -7 18 -31q-7 -24 -18 -24q-13 0 -41 22q-5 4 -9 47.5t-4 82.5q0 15 9 114q-41 0 -114 -14l-109 -22q-8 -98 -8 -142q0 -20 2 -26q5 -67 -3 -67q-11 0 -41 11q-15 8 -15 47q0 19 4 108q2 60 -2 60 q-30 -7 -81 -17q-10 -1 -10 5q0 12 26 26q32 17 74 31q19 111 34 164.5l31 109.5q9 36 23 36q17 0 17 -17q0 -8 -6 -34q-9 -34 -11 -46q-10 -54 -19.5 -123.5t-7.5 -73.5q188 41 220 41q0 40 16 126q12 70 20 97q23 82 53 82q20 0 20 -13q0 -4 -12 -26q-9 -16 -28 -136 q-17 -111 -17 -131q17 -3 37.5 -13t20.5 -19z" />
<glyph unicode="&#xf049;" horiz-adv-x="224" d="M198 -9q0 -14 -8 -14l-60 -2q-25 -1 -69 -5q-25 -2 -25 27q0 18 50 20q-18 57 -18 134q0 93 8 183q5 63 13 122q8 52 8 50h-40q-10 0 -10 13q0 19 48 30q56 13 71 13q26 0 26 -21q0 -16 -13 -18l-31 -8q-8 -2 -9 -15q-14 -287 -14 -335q0 -134 28 -144l26 -9 q19 -7 19 -21z" />
<glyph unicode="&#xf04a;" horiz-adv-x="379" d="M381 577q0 -21 -16 -40q-6 9 -11 9q-18 0 -42 -8.5t-24 -12.5q3 -7 14 -30q7 -15 14 -90q6 -70 6 -120q0 -149 -49 -239q-19 -36 -57.5 -60t-75.5 -24q-58 0 -101.5 42t-43.5 97q0 46 29.5 80t70.5 34q32 0 32 -32q0 -45 -25 -45q-8 0 -10 17t-11 17q-11 0 -23.5 -36 t-12.5 -57q0 -34 23 -57.5t56 -23.5q65 0 102 79t37 216q0 67 -8 141q-9 81 -19 76l-82 -36l-4 19q0 15 38.5 41t87.5 45.5t73 19.5q32 0 32 -22z" />
<glyph unicode="&#xf04b;" horiz-adv-x="462" d="M448 51q0 -27 -23.5 -43t-62.5 -16q-74 0 -115.5 52.5t-58.5 86.5q-18 38 -50 139q-8 -4 -52 -70l13 -203q0 -5 -8 -10t-18 -5q-48 0 -48 132q0 113 6 205q5 66 13 115q6 43 6 37q8 65 28 65q16 0 16 -28q0 -14 -5 -94t-5 -86q0 -3 7 -8l34 41q70 82 162.5 150.5 t135.5 68.5q23 0 23 -24q0 -12 -31 -28q-46 -23 -141 -107t-95 -106q0 -9 78 -174q17 -36 49 -70.5t47 -34.5q27 0 83 69q12 -33 12 -54z" />
<glyph unicode="&#xf04c;" horiz-adv-x="398" d="M392 76q0 -23 -49 -42q-3 6 -12 13q-30 4 -228 -50q-31 -9 -61 -23q-24 -11 -28 -11q-18 0 -18 21q0 19 36 31q10 4 45 22q-19 43 -19 81q0 141 28 290q20 108 36 146q14 32 20 32q9 0 15.5 -11t6.5 -22q0 4 -9 -74l-23 -190.5t-11 -205.5q0 -17 1.5 -20.5t9.5 -3.5 q18 0 67 18q66 24 151 24q42 0 42 -25z" />
<glyph unicode="&#xf04d;" horiz-adv-x="501" d="M483 42q0 -16 -10 -30.5t-20 -14.5q-3 0 -5.5 0.5t-41.5 23.5q-28 15 -28 107q0 143 45 363q-43 -69 -67 -129q-17 -43 -54 -165q-13 -45 -16 -66q0 -8 -1 -17q-3 -13 -14 -13q-3 0 -9 5.5t-9 7.5q-10 6 -31 14q-24 11 -43 141l-18 166q-78 -262 -78 -401q0 -59 3 -83 q4 -13 7 -21q-2 -2 -8 -2q-60 0 -60 74q0 181 89 448q11 32 28.5 56.5t31.5 24.5l18 -16q16 -14 19.5 -30.5t3.5 -82.5q0 -19 6.5 -77t10.5 -73l14 -54q9 17 34 95t43 112q30 59 60 102.5t40 43.5h17q18 22 20 22q4 0 10 -8t5 -16l-23.5 -201t-11.5 -264q0 -25 12 -33 q10 15 15 15q6 0 11 -8t5 -16z" />
<glyph unicode="&#xf04e;" horiz-adv-x="411" d="M412 629q0 -13 -6 -45q-10 -52 -18 -175q-8 -113 -8 -180q0 -11 3.5 -81t3.5 -82l-1 -54q-17 -2 -21 -1q-50 -2 -69 22q-43 55 -81 144q-35 84 -88 258l-16 52q-7 -9 -15.5 -97t-7.5 -150q1 -99 6 -161q4 -42 10 -67q5 -20 5 -19q0 -7 -15 -7q-34 0 -48.5 38.5 t-14.5 136.5q0 141 17 259q15 108 37 155l15 5q12 19 18 19q19 0 36.5 -41.5t45.5 -151.5q20 -79 122 -304q4 27 3 84q-2 68 0 101q4 68 9 136q7 62 35 168q14 52 30 52q13 0 13 -14z" />
<glyph unicode="&#xf04f;" horiz-adv-x="570" d="M558 414q0 -163 -90.5 -292t-204.5 -129q-58 0 -117 32q-69 37 -99 92.5t-30 144.5q0 102 56 199q54 93 141 150q25 16 46 16q27 0 27 -18q0 -6 -48 -40q-63 -45 -111 -129q-56 -97 -56 -192t43.5 -149.5t119.5 -54.5q106 0 189.5 115.5t83.5 259.5q0 71 -32 112.5 t-87 41.5q-67 0 -120 -71q-47 -63 -47 -122q0 -22 13 -23l51 -3q1 -22 -13.5 -35.5t-30.5 -13.5q-12 0 -17 5q-55 44 -55 82q0 77 65 150.5t143 73.5q75 0 127.5 -58.5t52.5 -143.5z" />
<glyph unicode="&#xf050;" horiz-adv-x="588" d="M575 560q0 -33 -15 -77q-17 -47 -41 -77q-66 -83 -156.5 -141.5t-147.5 -58.5q-21 0 -60 12q-1 -47 6 -121t7 -65q0 -18 -10 -18q-6 0 -23 10q-20 11 -28 23q-14 22 -14 133q0 106 48 269q15 50 35 50t20 -16q0 5 -16.5 -49.5t-16.5 -108.5q9 0 22.5 4t16.5 4q18 0 18 -7 t-26 -22.5t-26 -24.5q0 -18 29 -18q48 0 125 48q81 51 137 119q64 79 64 149q0 37 -24.5 58t-66.5 21q-95 0 -323 -141q-32 -20 -60 -53v-15q0 -3 -8.5 -10t-12.5 -7q-21 0 -21 32q0 12 7 21q48 73 186 147.5t226 74.5q38 0 58.5 -10t49.5 -43q41 -46 41 -92z" />
<glyph unicode="&#xf051;" horiz-adv-x="575" d="M562 346q0 -107 -55 -203q-41 -72 -101 -120q0 -4 31 -35.5t38 -31.5q21 0 49 36q7 -18 7 -26q0 -24 -18 -40t-43 -16q-33 0 -58.5 17.5t-71.5 69.5q-30 -5 -51 -5q-110 0 -189.5 76t-79.5 180t51 206q55 111 146 167q8 5 15 5q4 0 8 -3l27 -19q3 -2 24.5 7.5t41.5 9.5 q107 0 168 -73t61 -202zM513 379q0 91 -42 149t-108 58q-84 0 -149 -75q-62 -71 -62 -152q0 -12 8.5 -39.5t8.5 -32.5q0 -7 -4 -7q-33 0 -58 81q-24 -22 -24 -102q0 -87 48 -149q52 -68 137 -68q24 0 24 5q0 11 -15.5 26t-30.5 15h-25q-2 7 -2 15q0 6 16.5 13t28.5 7 q17 0 43 -16.5l53 -33.5q66 35 109.5 121.5t43.5 184.5z" />
<glyph unicode="&#xf052;" horiz-adv-x="586" d="M593 518q0 -67 -86 -134q-45 -35 -180 -110q18 -65 80 -167q22 -37 39 -37q23 0 57 39q17 -21 17 -37q0 -15 -16 -31.5t-32 -16.5q-17 0 -52 17q-41 19 -63 45q-42 48 -82 161l-124 -54q-7 -145 -2 -155l11 -24q0 -11 -13 -11q-15 0 -34 16q-26 23 -26 109q0 8 1 24t1 18 l-20 7l-3 17l17 12q14 10 14 51q0 33 21 100l21 65q6 26 17 26q19 0 19 -20q-4 -39 -15 -126q-4 -29 0 -54q178 85 286 162q111 81 111 130q0 23 -22.5 39t-49.5 16q-151 0 -442 -155q-6 -6 -26 -22q-8 0 -8 22q0 35 78 79q99 56 200 91t164 35q142 0 142 -127z" />
<glyph unicode="&#xf053;" horiz-adv-x="512" d="M487 213q0 -75 -82.5 -138.5t-177.5 -63.5q-86 0 -147 54t-61 131q0 60 56 110q53 46 110 46q42 0 42 -29q0 -19 -16 -19q-8 4 -26 14q-25 0 -68 -40q-51 -46 -51 -94q0 -46 47.5 -81.5t108.5 -35.5q86 0 151.5 52t65.5 121q0 59 -50 100.5t-135 52.5l-157 20 q-60 8 -60 69q0 37 12.5 56t52.5 41q124 70 287 70q94 0 94 -43q0 -24 -37.5 -47t-84.5 -29q-12 -1 -21.5 8.5t-9.5 22.5q0 39 76 39q13 0 13 -4q0 -5 -30.5 -15.5t-30.5 -16.5q0 -4 8 -4q20 0 54.5 16t34.5 26q0 8 -23 8q-108 0 -239 -52q-120 -48 -120 -75q0 -33 175 -35 q56 -1 120 -35t88 -76q31 -68 31 -124z" />
<glyph unicode="&#xf054;" horiz-adv-x="464" d="M515 555q0 -25 -86 -25q-43 0 -115 -26q-7 -2 -7 -83q0 -7 -7 -83q-7 -69 -4 -114l10 -178q1 -13 5 -22q6 -12 7 -17q2 -8 -3 -20t-14 -12q-22 0 -39 26q-10 20 -13 42q-3 26 -4 107l-1 102q-1 91 25 237l-274 -66l9 35q20 6 158 57q99 36 167 50q50 10 128 10 q58 0 58 -20z" />
<glyph unicode="&#xf055;" horiz-adv-x="601" d="M588 72q0 -19 -14 -46q-19 -38 -50 -38q-40 0 -66 37.5t-26 94.5q0 70 22 153q-65 -177 -110 -243q-41 -57 -90 -57q-26 0 -59 20q-25 15 -35 28q-26 34 -26 119q0 79 21 170q11 49 38 134q21 65 21 83t-25 18q-23 0 -85.5 -61t-69.5 -82q-6 -25 -11 -25q-4 0 -6 1 q-11 22 -11 41q0 36 63 103.5t111 67.5q32 0 53 -26t22 -67q0 -27 -7 -61l-39 -182q-15 -70 -15 -136q0 -102 51 -102q36 0 68 63q152 297 198 425q14 38 35 38q6 0 11 -10.5t5 -20.5q0 -19 -14 -60q-29 -86 -45 -215q-12 -94 -12 -157q0 -41 36 -41q21 0 36.5 38t14.5 38 q10 0 10 -42z" />
<glyph unicode="&#xf056;" horiz-adv-x="536" d="M608 676q0 -7 -57 -75q-64 -76 -135 -250q-76 -185 -104 -346q-3 -17 -30 -17q-43 0 -79 116.5t-38 259.5q-2 122 -4 140q-7 56 -15 56q-23 0 -61 -99q-37 -95 -37 -137q0 -6 1 -9q10 -28 10 -24q0 -4 -8 -4q-18 0 -29.5 20t-11.5 51q0 98 55 188q32 53 74 53 q29 0 51 -27.5t26 -69.5l23 -268q6 -67 37 -169q42 179 67 248q60 168 168 310q16 21 44 43.5t40 22.5q13 0 13 -13z" />
<glyph unicode="&#xf057;" horiz-adv-x="799" d="M825 631q0 -12 -26.5 -62t-43.5 -97l-66 -177q-40 -118 -68 -265q-6 -34 -51 -34q-27 0 -47 68q-24 82 -37 169q-7 49 -21 195l-73 -180q-55 -134 -58 -210q0 -9 -8 -26q-21 -26 -43 -26q-39 0 -65 109.5t-26 269.5q0 90 -4 122q-6 40 -22 40q-23 0 -69 -81 q-45 -77 -48 -108q0 -18 -8 -22q8 -43 1 -43q-10 0 -19 24.5t-9 53.5q0 72 47.5 146.5t100.5 74.5q39 0 61.5 -37.5t22.5 -105.5q0 -120 16 -232q14 -100 26 -112q13 56 78 256q23 65 55.5 126.5t45.5 61.5q9 0 24 -6q18 -9 23 -21q0 -21 22 -181q25 -184 43 -220 q22 81 43 151q52 168 94 249q33 63 43 79q17 26 53 64q13 -6 13 -13z" />
<glyph unicode="&#xf058;" horiz-adv-x="639" d="M625 573q-105 -89 -175 -161q-7 -7 -118 -130q33 -100 52 -140q45 -95 89 -95q43 0 115 71q-7 -66 -39 -100q-29 -30 -70 -30q-37 0 -79.5 34.5t-63.5 77.5q-56 116 -59 116q-11 0 -194 -248q-15 -19 -18 -19q-7 0 -17.5 10.5t-10.5 19.5q0 8 15 31q63 98 206 270 q-43 170 -46 180q-22 70 -49 70q-45 0 -102 -97q-19 -32 -19 -52t-7 -20q-8 0 -19.5 16.5t-11.5 29.5q0 22 29 71q55 93 132 93q53 0 88 -56q32 -51 59 -164l105 103q58 54 124 104q49 37 69 37q14 0 15 -22z" />
<glyph unicode="&#xf059;" horiz-adv-x="544" d="M529 550q-7 -37 -19 -119q-7 -47 -34 -419q-9 -115 -59 -204.5t-159 -89.5q-43 0 -65.5 12t-40.5 44q-25 44 -25 78q0 33 29 60.5t65 27.5q32 0 32 -17v-1q0 1 3 -3q-3 -2 -37 -13q-14 -3 -33 -25q-22 -24 -22 -43q0 -60 75 -60q68 0 115.5 60.5t58.5 158.5l12 111 q13 120 13 178l-61 -180q-38 -97 -94 -97q-123 0 -123 199q0 38 9 79l45 204q3 14 3 34q0 43 -29 43q-28 0 -83.5 -76t-51.5 -113l3 -11q1 -14 -4 -14q-12 0 -23 15t-11 30q0 58 51 129q56 78 119 78q34 0 55.5 -29t21.5 -76q0 -20 -3 -36l-35 -188q-6 -32 -6 -87 q0 -59 13 -96t35 -37q35 0 79 108q5 13 44 126l54 158l30 94q13 33 29 33q10 0 18 -8t6 -18z" />
<glyph unicode="&#xf05a;" horiz-adv-x="587" d="M596 512q0 42 -104 42q-185 0 -382 -79q-33 -13 -36 -15q-17 -10 -17 -26t7 -34q23 9 53 15q24 5 28 8l23 20q-4 0 -2 1q14 4 100 27q110 30 190 30q29 0 82 -10q-6 -9 -47 -23q-20 -6 -85 -48q-75 -48 -126 -91l-102 -87q-64 -58 -98.5 -112t-58.5 -83q-11 -14 -11 -18 q0 -5 3.5 -12.5t4.5 -11.5q2 -11 2 -28q183 53 316 53q60 0 124.5 -13.5t66.5 -13.5q22 0 22 13q0 18 -26 31q-10 4 -59 19q-43 13 -141 13q-125 0 -221 -22q38 52 132 160q65 67 168 142q92 67 120 75q38 11 53 26q4 4 12.5 23.5t8.5 28.5z" />
<glyph unicode="&#xf05b;" horiz-adv-x="261" d="M237 -73q0 -29 -30 -29q-35 0 -79 -4t-52 -4q-24 0 -24 13v182q-1 151 -1 194q0 259 -11 370q-2 18 45 23q30 3 122 3q25 0 25 -20q0 -10 -7 -27q-5 -11 -14 -11q-4 0 -20 4.5t-29 4.5q-17 0 -40 -9q-26 -133 -26 -338q0 -248 17 -335q11 -4 20 -5q5 -1 14.5 0.5 t14.5 1.5q75 0 51 1q24 -1 24 -15z" />
<glyph unicode="&#xf05c;" d="M268 -17q0 -8 -9 -8q-10 0 -24 8.5t-18 16.5q1 9 -1 26l-187 550q-3 7 -2 16q1 11 9 11q7 0 17.5 -11t12.5 -20z" />
<glyph unicode="&#xf05d;" horiz-adv-x="261" d="M225 -81q2 -18 -45 -23q-30 -3 -122 -3q-25 0 -25 20q0 10 7 27q5 11 14 11q4 0 20 -4.5t29 -4.5q18 0 40 9q26 133 26 338q0 248 -17 335q-11 4 -20 5q-5 1 -14.5 -0.5t-14.5 -1.5q-75 0 -51 -1q-24 1 -24 15q0 29 30 29q35 0 79 4t52 4q24 0 24 -13v-182q1 -151 1 -194 q0 -259 11 -370z" />
<glyph unicode="&#xf05e;" horiz-adv-x="312" d="M271 325q0 -15 -15 -15q-9 0 -30 32t-36 65q-33 72 -54 142q-5 -3 -9 -7t-5 -19q-4 -7 -26 -65q-25 -63 -34 -94q-12 -41 -18 -52q-7 -15 -19 -15t-12 41q0 31 18 76q25 61 29 79q21 83 40.5 105t66.5 19q16 -17 19 -53q11 -25 48 -131q17 -52 31 -84q6 -14 6 -24z" />
<glyph unicode="&#xf05f;" horiz-adv-x="500" d="M509 -123h-490q-23 0 -23 23t23 23h490q23 0 23 -23t-23 -23z" />
<glyph unicode="&#xf060;" horiz-adv-x="138" d="M111 471q-1 -2 -6 -6l-46 27q-2 1 -18 10q-28 16 -28 31q0 5 4 11.5t16 9.5q12 2 20 -2l38 -36q25 -24 25 -31q0 -5 -5 -14z" />
<glyph unicode="&#xf061;" horiz-adv-x="311" d="M287 295q0 -5 -17 -214q-2 -26 5 -72l-20 -1l-24 9q2 -1 -35 -18q-43 -21 -103 -21q-30 0 -50 18.5t-20 46.5q0 40 37 71q35 28 71 28q90 1 91 5q3 17 8 80t5 75q0 50 -11 50q-23 0 -49 -58q-11 -20 -21 -40q-18 -36 -18 -55q0 -9 6.5 -13t6.5 -8q0 -13 -13 -13 q-16 0 -29 15.5t-13 35.5q0 27 20 75.5t49.5 79t55.5 30.5q30 0 49 -29t19 -77zM218 55v38l-60 3q-36 2 -66 -14t-30 -38q0 -19 39 -19q82 0 117 30z" />
<glyph unicode="&#xf062;" horiz-adv-x="276" d="M261 198q0 -90 -36 -148t-91 -58q-28 0 -63 28l-10 -9q-6 -5 -23 13q-20 20 -20 46q0 276 15 373l14 97q4 20 13 20q18 0 18 -22q0 1 -3 -30t-3 -61q0 -27 4 -115q34 33 72 33q35 0 65 -27q48 -43 48 -140zM212 216q0 51 -17.5 83.5t-43.5 32.5q-31 0 -56.5 -40.5 t-25.5 -80.5q0 -28 3 -43q9 12 19 12q5 0 5 -6t-9 -30t-9 -46q0 -27 15 -47.5t35 -20.5q34 0 59 55t25 131z" />
<glyph unicode="&#xf063;" horiz-adv-x="276" d="M269 176q0 -71 -40.5 -128t-90.5 -57q-43 0 -79 49.5t-36 101.5q0 81 50 162t95 81q65 0 65 -81q0 -33 -15 -67t-33 -34q-11 0 -22.5 10.5t-11.5 20.5q0 9 4 17q3 -3 6 -3q11 0 21 34q8 28 8 46q0 26 -12 26q-27 0 -63.5 -85t-36.5 -141q0 -38 15.5 -63.5t37.5 -25.5 q46 0 73 76q20 56 20 71v18q0 12 11 12q4 0 19 -14t15 -26z" />
<glyph unicode="&#xf064;" horiz-adv-x="275" d="M247 508q0 -35 -8 -94q-7 -51 -7 -285q0 -48 4 -80.5t4 -34.5q0 -18 -18 -18t-31 31q-33 -52 -68 -52q-44 0 -72 36.5t-28 92.5q0 78 40.5 158t85.5 80q36 0 42 -14l18 175q4 38 20 38q18 0 18 -33zM186 194l-21 13q12 50 12 62q0 38 -22 38q-32 0 -61 -95 q-24 -79 -24 -123q0 -33 15 -56.5t36 -23.5q31 0 50 58q17 54 15 127z" />
<glyph unicode="&#xf065;" horiz-adv-x="252" d="M244 138q0 -59 -37 -107t-83 -48q-29 0 -62.5 36.5t-35.5 72t-4 43.5q-5 2 -12 8q-2 3 1 16q1 6 7 11t10 14q0 43 40.5 110.5t75.5 67.5q21 0 39.5 -26t18.5 -54q0 -51 -24 -105l-2 -13q-2 -10 -46 -10q-28 0 -58 -9q-2 -28 -2 -29q0 -36 16 -63.5t36 -27.5q18 0 41 34 q21 30 33 69q4 12 10 39q0 2 -3 12q-2 7 3 7q38 0 38 -48zM150 300q-4 25 -11 25q-19 0 -40 -62q-16 -48 -20 -81q13 0 48 4q8 17 20 57q6 35 3 57z" />
<glyph unicode="&#xf066;" horiz-adv-x="245" d="M237 464q0 -35 -8 -65q-6 -23 -13 -23q-12 0 -23.5 8.5t-11.5 21.5q0 12 13 61q8 30 8 45q0 8 -3 8q-9 0 -24.5 -35.5t-26.5 -82.5q-15 -66 -15 -86q0 -12 8 -13l72 -8q14 -2 14 -18q0 -19 -26 -19h-68q-10 0 -10 -98q0 -37 2 -83.5t2 -40.5q0 -5 6 -9.5t6 -9.5 q0 -17 -17 -17q-29 0 -36 25q-6 19 -11 127q-1 26 4 98q-19 1 -68 1q-21 0 -21 17q0 14 41 21q14 1 53 10q18 116 54 187q31 61 59 61q25 0 34 -20q6 -17 6 -63z" />
<glyph unicode="&#xf067;" horiz-adv-x="312" d="M272 94q0 -132 -35 -238q-15 -45 -45.5 -72.5t-65.5 -27.5q-40 0 -70 30t-30 70q0 29 13 52.5t37.5 40.5t44.5 17q19 0 19 -18q0 -12 -7 -12q-10 0 -28 -6q-39 -34 -39 -88q0 -50 43 -50q61 0 89 91q17 55 20 157q-19 -18 -37 -37q-24 -19 -52 -18q-106 3 -106 146 q0 96 36 162.5t88 66.5q25 0 47 -14q15 -10 49 -42q6 -12 17 -81q12 -78 12 -129zM218 172q0 31 -2 49q-14 -18 -24 -18q-20 0 -20 10q0 13 11.5 24.5t11.5 34.5q0 20 -13.5 36.5t-30.5 16.5q-29 0 -52.5 -67.5t-23.5 -152.5q0 -39 13.5 -63t34.5 -24q30 0 62.5 57t32.5 97z " />
<glyph unicode="&#xf068;" d="M252 165q0 -14 -6.5 -71l-6.5 -57q0 -39 -12 -39q-39 0 -39 49q0 19 7 115.5t7 114.5q0 33 -22 33q-8 0 -35 -34q-30 -38 -54 -133q-12 -48 -12 -126q0 -14 -3 -16.5t-14 -2.5q-31 0 -33 45l-7 152q0 64 8 132q10 94 12 119q5 78 28 78q15 0 15 -25q0 -6 -4 -46 q-3 -45 -5 -86q-1 -34 -6 -145q41 76 65 99q17 16 41 16q41 0 58.5 -39.5t17.5 -132.5z" />
<glyph unicode="&#xf069;" horiz-adv-x="160" d="M120 406q0 -17 -10 -33.5t-24 -16.5q-11 0 -19 11t-8 26q0 18 11 31t22 13q7 0 17.5 -9.5t10.5 -21.5zM106 12q1 -17 -18 -17q-39 0 -39 84q0 36 6 172q3 65 26 66q10 1 15.5 -8.5t5.5 -24.5q-3 -112 -3 -172q0 -36 7 -100z" />
<glyph unicode="&#xf06a;" horiz-adv-x="174" d="M101 382q0 -19 -20 -19q-16 0 -28 12.5t-12 30.5q0 15 13 34.5t27 12.5q4 -2 11 -14.5t7 -22t1 -19t1 -15.5zM128 117q0 -80 -17 -170.5t-40 -136.5q-14 -28 -43.5 -48.5t-56.5 -20.5q-38 0 -69 32t-31 71q0 41 32 74t72 33q12 0 12 -12q0 -11 -2 -13q-5 -5 -18 -8 t-19 -8q-35 -26 -35 -84q0 -20 13 -33.5t32 -13.5q55 0 89.5 99t34.5 256q0 34 -6 126q-1 16 -4 29.5t-3 14.5q0 13 5 11q22 -7 29 -18t11 -37q14 -96 14 -143z" />
<glyph unicode="&#xf06b;" horiz-adv-x="273" d="M264 7q0 -33 -40 -33q-74 0 -125 141q-1 2 -13 41q-5 16 -9 16q-10 0 -10 -25v-134q0 -15 -33 -15q-13 0 -14 66l-3 153q-1 42 11 133q7 54 15 108q3 24 6 31.5t14 18.5q19 -12 19 -24l-3 -29q-3 -34 -5 -76q-3 -61 -3 -138l10 2l109 90q33 27 51 27q6 0 20 -19 l-142 -122q-4 -4 -4 -12q10 -54 39 -102q58 -96 78 -96q5 0 12 8.5t11 8.5q9 0 9 -19z" />
<glyph unicode="&#xf06c;" horiz-adv-x="142" d="M99 493q-4 -67 -8 -219q-1 -92 3 -254q0 -29 -21 -29q-17 0 -24 32q-2 13 -6 62q-1 13 -1 63q0 64 18 302q5 65 23 65q17 0 16 -22z" />
<glyph unicode="&#xf06d;" horiz-adv-x="390" d="M364 235q0 -67 -15 -154q-13 -77 -44 -77q-5 0 -10.5 7.5t-5.5 13.5t13 62.5t13 127.5q0 92 -18 92q-21 0 -41 -57q-28 -81 -32 -98q-3 -24 -7 -48q-5 -30 -11 -81q-2 -18 -21 -18q-7 0 -16.5 9t-9.5 16q2 32 6 107q1 16 5 42t4 40q0 17 -4 34t-7 33t-15 16t-30 -38 q-25 -53 -39 -148q-4 -26 -5.5 -71.5t-23.5 -45.5q-15 0 -24 26q-8 23 -8 48.5v82.5l11 108q2 36 21 36q16 0 17 -17q3 -34 7 -40q32 95 72 95q49 0 65 -92q40 95 77 95q28 0 52 -32t24 -74z" />
<glyph unicode="&#xf06e;" horiz-adv-x="258" d="M239 226q0 -10 -26 -192q-7 -52 -33 -52q-17 0 -17 25q0 10 15 103.5t15 143.5q0 49 -31 49q-20 0 -40 -61.5t-29 -146.5q-4 -37 -4 -79q0 -28 -10 -28q-15 0 -28 15q-18 20 -18 56q0 5 -2 46q-1 31 0 54q1 33 4 73q4 58 24 58q16 0 16 -25l-3 -30q0 -12 4 -29 q39 128 96 128q28 0 47.5 -31t19.5 -77z" />
<glyph unicode="&#xf06f;" horiz-adv-x="348" d="M326 156q0 -69 -46.5 -119t-110.5 -50q-61 0 -105 47t-44 112q0 82 61 136q48 43 83 43q13 0 36 -25q16 -2 51 -11q75 -33 75 -133zM286 167q0 43 -20 70t-53 27q-13 0 -30.5 -8.5t-25.5 -8.5q-16 0 -31 4q-26 -18 -45.5 -59.5t-19.5 -74.5q0 -37 29 -65t67 -28 q52 0 90.5 45t38.5 98z" />
<glyph unicode="&#xf070;" d="M263 198q0 -97 -49 -163q-39 -52 -71 -52q-33 0 -46.5 4.5l-25.5 8.5q-2 -19 2 -91q5 -86 17 -93l12 -7q2 -2 2 -13q0 -18 -23 -18q-41 0 -48 51q-13 95 -12 260q0 58 9.5 125.5t17.5 67.5l25 -1q4 0 22 31q8 14 28.5 24t40.5 10q46 0 72.5 -38.5t26.5 -105.5zM215 219 q0 85 -47 85q-23 0 -52 -35q-48 -58 -48 -161q0 -12 5 -12q2 0 6.5 1t7.5 1q8 0 8 -6q0 -10 -6 -39q-4 -26 34 -26q41 0 66.5 53.5t25.5 138.5z" />
<glyph unicode="&#xf071;" d="M261 295q0 -7 -13 -55q-25 -362 -25 -421l22 -4v-18q0 -26 -16 -26q-23 0 -40 25.5t-17 61.5q0 19 7 88.5t7 72.5l-22 -20q-18 -15 -41 -15q-18 0 -50 24q-26 20 -35.5 37t-9.5 47q0 91 59 172q57 78 115 78q17 0 38 -17t21 -30zM222 291q0 14 -12 14q-19 0 -63 -44 q-24 -31 -44 -79q-26 -60 -26 -103q0 -22 11.5 -37t27.5 -15q31 0 64 68q29 61 29 102q0 9 -6 21.5t-6 20.5q0 10 12.5 29.5t12.5 22.5z" />
<glyph unicode="&#xf072;" horiz-adv-x="209" d="M191 258q0 -35 -6 -63.5t-13 -28.5q-16 0 -25.5 16t-9.5 36q0 8 1 20.5t1 19.5t-2 7q-11 0 -44 -120q-8 -25 -15 -50t-7 -50q0 -8 1.5 -20t1.5 -20q0 -22 -12 -22q-28 0 -37 41q-5 23 -5 78q0 50 11 124q2 45 21 45q20 0 20 -40q0 -16 2 -30q45 133 80 133q37 0 37 -76z " />
<glyph unicode="&#xf073;" horiz-adv-x="350" d="M333 301q0 -36 -25 -43q-42 -7 -47 -7q-22 0 -22 18q0 22 45 31q-20 3 -45 3q-36 0 -88 -13q-60 -15 -60 -32q0 -9 30 -15l92 -17q46 -8 77 -46t31 -85q0 -55 -44.5 -93.5t-106.5 -38.5q-61 0 -103.5 38t-42.5 91q0 69 78 100q0 8 -12 10q-15 4 -19 8q-17 17 -17 48 q0 40 45 62.5t126 22.5q38 0 69 -9q39 -12 39 -33zM275 108q0 40 -29 58.5t-95 21.5q0 -6 13 -16t13 -28q0 -26 -20 -26q-15 0 -15 19.5t-24 19.5q-22 0 -40 -19t-18 -42q0 -33 32 -59t74 -26q45 0 77 28.5t32 68.5z" />
<glyph unicode="&#xf074;" horiz-adv-x="318" d="M323 378q0 -9 -8.5 -18t-15.5 -11l-153 -31q-6 -95 -6 -140q0 -156 43 -156q22 0 36 24q7 12 29 69q13 33 13 54q0 9 -8 36q43 -12 43 -57q0 -51 -29 -103q-33 -60 -80 -60q-42 0 -70.5 40t-25.5 106l9 179q-59 -20 -73 -20q-13 0 -17 23q0 26 23 31l74 17q3 9 11 40 q4 17 23 45l15 -8q-5 -54 -2 -66l152 19q17 2 17 -13z" />
<glyph unicode="&#xf075;" horiz-adv-x="297" d="M283 -15q0 -7 -13 -7q-23 0 -40.5 25.5t-19.5 63.5q-37 -92 -82 -92q-34 0 -60 21q-45 37 -45 127q0 53 22 135q16 59 35 59q17 0 17 -21q0 -3 -10 -65t-10 -78q0 -142 41 -142q35 0 67 129q20 79 22 105q7 78 29 78q26 0 26 -32q0 5 -5 -43.5t-5 -78.5q0 -126 13 -146 q18 -34 18 -38z" />
<glyph unicode="&#xf076;" horiz-adv-x="292" d="M288 329q0 -8 -24 -52q-31 -56 -49 -113q-39 -118 -40 -134q-3 -37 -17 -51q-48 -3 -68 19.5t-41 106.5q-10 40 -21 79q-10 43 -10 76q0 43 14 43q12 0 19.5 -13.5t19.5 -54.5q20 -76 44 -159q2 -18 12 -26q20 60 76 198q15 33 37 65.5t31 32.5q17 0 17 -17z" />
<glyph unicode="&#xf077;" horiz-adv-x="464" d="M466 334q0 -14 -8 -25q-62 -85 -100 -214l-22 -77q-7 -23 -18 -23q-6 0 -23 5t-19 8q-17 27 -28 67l-33 125q-15 1 -43 -103l-27 -110q-4 -3 -17 -3q-41 0 -50 22q-23 57 -40.5 140.5t-17.5 134.5q0 36 14 36q17 0 26 -33q17 -76 56 -205l18 52q24 72 55 126.5t47 54.5 q11 0 17 -27l14 -75q21 -111 36 -130q45 144 113 246q21 31 34 31q16 0 16 -23z" />
<glyph unicode="&#xf078;" horiz-adv-x="314" d="M312 386q0 -12 -7.5 -24.5t-12.5 -12.5q-6 0 -20 7q-30 -33 -77 -111q-44 -73 -44 -84q0 -19 48.5 -87.5t48.5 -67.5q0 -15 -30 -15q-24 0 -35.5 12t-63.5 92q-29 -42 -68 -131q-32 -75 -36 -75t-13 13.5t-9 19.5q0 46 102 221q-61 117 -61 157q0 17 17 17q15 0 37 -44 q27 -52 39 -63l93 140q44 59 74 59q18 0 18 -23z" />
<glyph unicode="&#xf079;" horiz-adv-x="300" d="M280 268q0 -19 -4 -54q-4 -41 -5 -61.5t-1 -150.5q0 -117 -32.5 -182.5t-90.5 -65.5q-49 0 -83.5 31.5t-34.5 75.5q0 29 18 58t35 29q11 0 28 -5q22 -6 22 -15q0 -16 -18 -19q-25 -3 -26 -4q-21 -17 -21 -52q0 -26 16 -43t41 -17q103 0 103 272v57q-3 -6 -12 -22l-30 -73 q-25 -51 -68 -51q-44 0 -70.5 36t-26.5 94t31 135q32 81 63 81q10 0 10 -13q0 -6 -24 -72.5t-24 -131.5q0 -87 35 -87q30 0 71 109q20 47 45 117q11 64 35 64q18 0 18 -40z" />
<glyph unicode="&#xf07a;" horiz-adv-x="338" d="M324 286q0 -16 -39 -44l-96 -70q-66 -54 -126 -130q5 0 36 5q28 4 59 2q54 -2 109 -5q49 -4 49 -26q0 -15 -27 -16q-11 0 -27.5 3t-27.5 3q-77 0 -138 -12.5t-53 -12.5q-3 0 -16 5q1 11 -3 26t-4 18q0 24 29 64t70.5 76t121.5 94q-8 3 -20 5q-68 -2 -157 -10 q-11 -3 -11 16q0 17 28 22q134 22 175 22q68 0 68 -35z" />
<glyph unicode="&#xf07b;" horiz-adv-x="291" d="M310 652q-1 -17 -19 -20h-44q-34 0 -38 -15q-7 -24 -12 -159q-4 -112 -35 -153q-8 -10 -24 -18.5t-23 -17.5q-9 -12 -9 -14q0 -6 13 -14q17 -11 22 -16q24 -25 29 -36q10 -18 15 -54q15 -111 15 -221q0 -17 17 -27q13 -8 30 -8q31 0 41 -3q14 -4 14 -19q0 -10 -18 -11 q1 0 -38 0q-91 0 -91 39q0 27 -8.5 101.5t-8.5 109.5q-1 53 -22 96q-5 11 -19.5 22t-21.5 13q-19 5 -19 29q0 23 14 30q42 23 56 33q13 37 19 115q8 101 2 161q-8 76 95 76q54 0 48 1q21 -3 20 -20z" />
<glyph unicode="&#xf07c;" horiz-adv-x="270" d="M192 666q0 -40 -16 -119q-6 -32 -14 -153q-10 -145 -10 -278q0 -100 6 -178q1 -16 11 -44t10 -41q0 -16 -10 -29t-11 -12q-7 3 -22 5q-11 1 -13 6q-27 64 -27 207q0 172 24 403q26 258 54 258q18 0 18 -25z" />
<glyph unicode="&#xf07d;" horiz-adv-x="291" d="M276 260q0 -23 -14 -30q-42 -23 -56 -33q-13 -37 -19 -115q-8 -101 -2 -161q8 -76 -95 -76q-54 0 -48 -1q-21 3 -20 20t19 20h44q34 0 38 15q7 24 12 159q4 112 35 153q8 10 24 18.5t24 19t8 12.5q0 6 -13 14q-17 11 -22 16q-24 25 -29 36q-10 18 -15 54q-15 111 -15 221 q0 17 -17 27q-13 8 -30 8q-31 0 -41 3q-14 4 -14 19q0 10 18 11q-1 0 38 0q91 0 91 -39q0 -27 8 -100q9 -76 9 -111q1 -53 22 -96q5 -11 21 -23q13 -10 20 -12q19 -5 19 -29z" />
<glyph unicode="&#xf07e;" horiz-adv-x="514" d="M463 364q0 -58 -31 -96q-33 -41 -91 -41q-35 0 -67 26q-6 5 -48 49l-21 22q-11 9 -26 9q-33 0 -59 -27q-15 -16 -39 -57q-6 -10 -19 -10q-8 0 -16 6.5t-9 13.5q0 9 3 14q61 102 136 102q46 0 84 -44q35 -40 35 -41q23 -21 46 -21q69 0 78 99q2 21 22 19q22 0 22 -23z" />
<glyph unicode="&#xf085;" horiz-adv-x="600" d="M530 18q0 -13 -9.5 -22.5t-21.5 -9.5t-21 9.5t-9 20.5q0 30 31 30q30 0 30 -28zM330 18q0 -13 -9.5 -22.5t-21.5 -9.5t-21 9.5t-9 20.5q0 30 31 30q30 0 30 -28zM130 18q0 -13 -9.5 -22.5t-21.5 -9.5t-21 9.5t-9 20.5q0 30 31 30q30 0 30 -28z" />
<glyph unicode="&#xf091;" horiz-adv-x="138" d="M89 498q2 -29 -0.5 -35.5t-17.5 -10.5q-4 -1 -8 -1l-20 72q-4 16 -4 26q0 17 15 21q10 3 20 -3.5t13 -17.5q1 -22 2 -51z" />
<glyph unicode="&#xf092;" horiz-adv-x="138" d="M103 537l-20 -47q-14 -35 -25 -35q-8 0 -18 3l12 74q7 41 30 38q10 -2 16.5 -12.5t4.5 -20.5z" />
<glyph unicode="&#xf093;" horiz-adv-x="162" d="M122 577q9 -33 9 -60q0 -36 -14 -40q-13 -4 -19 12.5t-11 33.5q-1 4 -12 41q-6 25 16 31q24 7 31 -18zM70 534q5 -21 5 -37q0 -31 -17 -36q-9 -2 -19.5 10t-12.5 27l-16 62q-4 16 17 21q18 5 25 -5t18 -42z" />
<glyph unicode="&#xf094;" horiz-adv-x="162" d="M133 550q-6 -38 -20.5 -64t-26.5 -24q-13 2 -13 18q0 6 2.5 18.5t2.5 17.5q3 25 6 42q6 26 28 22q25 -4 21 -30zM70 578q0 -11 -3 -44q-12 -67 -41 -62q-9 2 -13 17t-1 30l12 63q2 16 24 12q18 -3 22 -16z" />
<glyph unicode="&#xf095;" horiz-adv-x="348" d="M311 156q0 -69 -46.5 -119t-110.5 -50q-61 0 -105 47t-44 112q0 82 61 136q44 39 83 39q28 0 87 -32q30 -7 52.5 -47.5t22.5 -85.5z" />
<glyph unicode="&#xf096;" horiz-adv-x="412" d="M379 210q0 -13 -9 -13q-1 0 -18.5 2t-28.5 2l-225 -8q-19 -1 -40.5 -5.5t-23.5 -4.5q-14 0 -14 24q0 32 35 32q6 0 22.5 -1.5t26.5 -1.5t23 1q17 2 23 2q40 2 157 2q6 0 14.5 2t14.5 2q17 0 30 -11t13 -24z" />
<glyph unicode="&#xf097;" horiz-adv-x="564" d="M525 210q0 -13 -9 -13q-2 0 -19 2t-28 2l-361 -8q-20 0 -41.5 -5t-22.5 -5q-14 0 -14 24q0 32 35 32q6 0 22.5 -1.5t26.5 -1.5q-3 0 46 3q33 2 293 2q6 0 14.5 2t14.5 2q17 0 30 -11t13 -24z" />
<glyph unicode="&#xf099;" horiz-adv-x="768" d="M715 272q0 -13 -8.5 -24t-17.5 -11q-2 0 -4 0.5t-30 16.5q-22 12 -22 78q0 101 27 233q-33 -57 -72 -185q-9 -31 -11 -46q-1 -6 -1 -12q-3 -13 -14 -13q-3 0 -14 11q-7 4 -22 8q-15 8 -28 83l-15 116q-48 -165 -48 -260q0 -46 2.5 -56.5t4.5 -15.5q0 -7 -10 -7 q-46 0 -46 56q0 130 62 315q8 23 22 41t25 18l15 -12q12 -9 14.5 -21t2.5 -61q0 -52 12 -104q1 -3 7 -26q15 47 49 134q21 42 43.5 73t30.5 31h9q8 10 16 16q4 0 10 -7t5 -14q-9 -70 -17 -140t-8 -185q0 -12 5 -18q6 9 10 9q16 0 16 -21zM391 610q0 -21 -65 -21 q-29 0 -79 -19q-2 0 -2 -54q0 -5 -5 -58q-5 -48 -3 -79l7 -125q4 -8 9 -26q1 -8 -3.5 -18t-12.5 -10q-16 0 -32 20q-10 21 -11 107l-1 71q-1 59 16 161l-191 -46l8 33q19 6 112 40q70 25 117 35q34 7 91 7q45 0 45 -18z" />
<glyph unicode="&#xf0a0;" horiz-adv-x="400" />
<glyph unicode="&#xf0a2;" horiz-adv-x="306" d="M258 272q0 -19 -8 -39q-19 -48 -62 -80q-15 -11 -47 -22l-5 -101q-15 -3 -18 -2q-2 26 -2 103q-6 6 -37 21q-25 12 -44 46.5t-19 68.5q0 103 61 167q12 13 42 31l2 82q0 17 15 17t14 -20l-5 -78q12 -5 36 -21q44 -37 44 -80q0 -25 -20 -25q-11 0 -13 5q-8 28 -15 55 q-10 31 -36 31q-28 0 -53 -56.5t-25 -116.5q0 -99 68 -99q28 0 58.5 23.5t39.5 52.5q15 45 26 45q3 0 3 -8z" />
<glyph unicode="&#xf0a8;" horiz-adv-x="184" d="M184 493q0 -31 -30 -31q-13 0 -23 10t-10 23q1 29 35 29q28 0 28 -31zM61 496q0 -31 -29 -31q-13 0 -23.5 11t-10.5 26q0 26 30 26q33 0 33 -32z" />
<glyph unicode="&#xf0a9;" horiz-adv-x="660" d="M622 493q0 -188 -109 -339.5t-242 -151.5q-120 0 -192 79q-76 83 -76 229q0 119 65 232q63 108 165 174q26 17 47 17q17 0 17 -6q0 -4 -9 -9q-21 -12 -42 -27q-78 -56 -138 -160q-69 -120 -69 -238q0 -120 57 -189.5t154 -69.5q132 0 237 142.5t105 322.5q0 90 -50 144 q-48 51 -123 51q-64 0 -101 -19q-31 -17 -67 -64q-22 -29 -25 -29q-16 0 -16 17q0 9 12 24q44 54 87 75.5t112 21.5q84 0 142.5 -66t58.5 -161zM447 291q0 -67 -55 -123.5t-123 -56.5q-59 0 -103.5 52t-44.5 122q0 84 48 166q41 71 104 119q59 46 99 46q29 0 52 -24.5 t23 -55.5q0 -28 -25 -91q-13 -31 -40.5 -63t-41.5 -32q-5 0 -16 12.5t-11 19.5q0 6 9.5 24t11.5 18q3 0 6.5 -1t5.5 -1q4 0 11 15q47 73 47 119q0 23 -25 23q-28 0 -77 -41q-54 -45 -89 -106q-43 -74 -43 -147q0 -63 23.5 -99.5t64.5 -36.5q51 0 103 59q49 54 49 94 q0 6 -1.5 17.5t-1.5 12.5q0 9 10 9q12 0 21 -14.5t9 -35.5z" />
<glyph unicode="&#xf0ae;" horiz-adv-x="660" d="M622 493q0 -188 -109 -339.5t-242 -151.5q-120 0 -192 79q-76 83 -76 229q0 119 65 232q63 108 165 174q26 17 47 17q17 0 17 -6q0 -4 -9 -9q-21 -12 -42 -27q-78 -56 -138 -160q-69 -120 -69 -238q0 -120 57 -189.5t154 -69.5q132 0 237 142.5t105 322.5q0 90 -50 144 q-48 51 -123 51q-64 0 -101 -19q-31 -17 -67 -64q-22 -29 -25 -29q-16 0 -16 17q0 9 12 24q44 54 87 75.5t112 21.5q84 0 142.5 -66t58.5 -161zM502 485q0 -43 -55 -86q-33 -26 -115 -71q13 -44 50 -104q13 -22 21 -22q13 0 37 28q15 -20 15 -30q0 -11 -11.5 -23t-23.5 -12 t-34 11q-27 13 -42 31q-30 36 -52 99q-45 -18 -73 -32q-5 -88 -2 -94q7 -15 7 -18q0 -11 -12 -11q-19 0 -31 19q-11 16 -11 65q0 5 1 14v11q-4 1 -12 5l-3 15l13 9q7 5 7 29q0 21 13 64l13.5 42t15.5 20q16 0 16 -17l-10 -80q-2 -19 -1 -29q248 118 248 181q0 13 -13.5 22 t-29.5 9q-96 0 -280 -99q-1 0 -18 -13q-11 0 -11 17q0 24 53 54q144 81 235 81q95 0 95 -85z" />
<glyph unicode="&#xf0b0;" horiz-adv-x="292" d="M225 513q0 -51 -29.5 -91t-67.5 -40q-39 0 -65.5 33t-26.5 80q0 53 28 86t72 33q37 0 63 -30t26 -71zM190 515q0 79 -57 79q-27 0 -43.5 -30t-16.5 -79q0 -85 54 -85q29 0 46 31t17 84z" />
<glyph unicode="&#xf0b4;" horiz-adv-x="138" d="M121 533q0 -15 -28 -31q-6 -4 -18 -10l-46 -27l-5.5 7.5t-5.5 12.5q0 7 25 31l24 23q5 8 13.5 12.5t20.5 2.5q12 -3 16 -9.5t4 -11.5z" />
<glyph unicode="&#xf100;" horiz-adv-x="167" d="M226 576q-17 -32 -273 -550q-2 -13 -9.5 -32.5t-24.5 -19.5q-8 0 -8 9l288 589q7 31 21 31q6 0 8 -11q1 -10 -2 -16z" />
<glyph unicode="&#xf101;" horiz-adv-x="390" d="M335 406q0 -17 -10 -33.5t-24 -16.5q-11 0 -19 11t-8 26q0 18 11 31t22 13q7 0 17.5 -9.5t10.5 -21.5zM321 12q1 -17 -18 -17q-39 0 -39 84q0 36 6 172q3 65 26 66q10 1 15.5 -8.5t5.5 -24.5q-3 -112 -3 -172q0 -36 7 -100zM222 464q0 -35 -8 -65q-6 -23 -13 -23 q-12 0 -23.5 8.5t-11.5 21.5q0 12 13 61q8 30 8 45q0 8 -3 8q-9 0 -24.5 -35.5t-26.5 -82.5q-15 -66 -15 -86q0 -12 8 -13l72 -8q14 -2 14 -18q0 -19 -26 -19h-68q-10 0 -10 -98q0 -37 2 -83.5t2 -40.5q0 -5 6 -9.5t6 -9.5q0 -17 -17 -17q-29 0 -36 25q-6 19 -11 127 q-1 26 4 98q-19 1 -68 1q-21 0 -21 17q0 14 41 21q14 1 53 10q18 116 54 187q31 61 59 61q25 0 34 -20q6 -17 6 -63z" />
<glyph unicode="&#xf102;" horiz-adv-x="392" d="M327 493q-4 -67 -8 -219q-1 -92 3 -254q0 -29 -21 -29q-17 0 -24 32q-2 13 -6 62q-1 13 -1 63q0 64 18 302q5 65 23 65q17 0 16 -22zM222 464q0 -35 -8 -65q-6 -23 -13 -23q-12 0 -23.5 8.5t-11.5 21.5q0 12 13 61q8 30 8 45q0 8 -3 8q-9 0 -24.5 -35.5t-26.5 -82.5 q-15 -66 -15 -86q0 -12 8 -13l72 -8q14 -2 14 -18q0 -19 -26 -19h-68q-10 0 -10 -98q0 -37 2 -83.5t2 -40.5q0 -5 6 -9.5t6 -9.5q0 -17 -17 -17q-29 0 -36 25q-6 19 -11 127q-1 26 4 98q-19 1 -68 1q-21 0 -21 17q0 14 41 21q14 1 53 10q18 116 54 187q31 61 59 61 q25 0 34 -20q6 -17 6 -63z" />
<glyph unicode="&#xf103;" horiz-adv-x="1000" d="M500 501l-52 497l26 2zM579 993l-79 -494l53 498zM526 999l-26 -499v500zM500 500l-105 489l26 5zM631 981l-130 -482l104 489zM499 500l-155 474l26 9zM681 965l-180 -467l155 477zM499 499l-204 457l24 11zM728 947l-226 -446l203 457zM498 502l-249 433l22 13z M774 920l-273 -419l251 433zM499 502l-294 404l21 15zM815 892l-315 -392l294 409zM500 501l-335 375l20 18zM854 854l-354 -354l335 373zM500 501l-372 335l18 20zM888 815l-389 -314l372 334zM501 502l-405 293l16 21zM919 772l-420 -272l405 294zM501 501l-434 250l14 22 zM944 725l-445 -226l433 250zM501 500l-456 202l11 25zM966 677l-467 -178l458 204zM501 500l-476 153l8 27zM984 630l-483 -130l476 155zM499 501l-489 104l6 26zM995 578l-494 -77l490 103zM499 502l-497 51l2 26zM999 526l-498 -27l496 54zM499 500l-499 1l1 27z M1000 497l-1 -27l-498 28zM499 499l-496 -54l-2 27zM998 445l-2 -26l-495 77zM499 497l-490 -103l-4 26zM990 393l-6 -26l-483 130zM499 498l-476 -155l-7 25zM975 345l-8 -27l-468 180zM501 499l-458 -204l-9 26zM955 296l-11 -25l-445 227zM501 499l-433 -250l-12 24z M933 247l-14 -22l-420 272zM501 498l-405 -294l-15 22zM904 203l-16 -21l-389 314zM501 497l-372 -334l-17 20zM872 162l-18 -20l-354 355zM500 498l-335 -373l-19 19zM835 122l-20 -18l-315 393zM500 498l-294 -409l-21 17zM795 92l-21 -15l-273 419zM499 497l-251 -433 l-22 14zM751 63l-22 -13l-227 446zM498 497l-203 -457l-23 11zM705 42l-24 -11l-180 468zM499 500l-155 -477l-25 10zM656 24l-26 -9l-129 483zM499 499l-104 -489l-26 7zM605 9l-26 -5l-79 494zM500 499l-53 -498l-26 4zM552 0l-26 -2l-26 499zM500 -2l-26 1l26 499v-500z " />
</font>
</defs>
</svg>
